<svg xmlns="http://www.w3.org/2000/svg" viewBox="0 0 257.17 347.6"><defs><style>.cls-1{fill:#fff;}.cls-1,.cls-2,.cls-3,.cls-4{stroke:#2e39b7;}.cls-1,.cls-2,.cls-3{stroke-linecap:round;stroke-linejoin:round;stroke-width:4px;}.cls-2{fill:#4d63ff;}.cls-3{fill:none;}.cls-4{fill:#8494f7;stroke-miterlimit:10;stroke-width:3px;}</style></defs><g id="Layer_2" data-name="Layer 2"><g id="Layer_2-2" data-name="Layer 2"><path class="cls-1" d="M192.76,172.6s-1.42-58.11,8.1-170.6c-11,8.54-8.14,6.68-8.14,6.68L184.59,2l-8.14,6.68L168.31,2l-8.14,6.68L152,2,143.9,8.68,135.76,2l-8.14,6.68L119.48,2l-8.14,6.68L103.21,2,95.07,8.68,86.93,2,78.78,8.68s.07-1-8.14-6.68C60.34,107.37,62.5,172.6,62.5,172.6Z"/><line class="cls-1" x1="149.51" y1="123.66" x2="135.42" y2="137.75"/><line class="cls-1" x1="135.41" y1="123.89" x2="149.5" y2="137.98"/><line class="cls-1" x1="121.03" y1="123.66" x2="106.94" y2="137.75"/><line class="cls-1" x1="106.94" y1="123.89" x2="121.03" y2="137.98"/><line class="cls-1" x1="152.36" y1="58.16" x2="138.27" y2="72.25"/><line class="cls-1" x1="138.26" y1="58.39" x2="152.35" y2="72.48"/><line class="cls-1" x1="123.88" y1="58.16" x2="109.79" y2="72.25"/><line class="cls-1" x1="109.78" y1="58.39" x2="123.87" y2="72.48"/><path class="cls-2" d="M43.17,172.87H214a3.58,3.58,0,0,1,3.58,3.58V186.6a0,0,0,0,1,0,0h-178a0,0,0,0,1,0,0V176.45A3.58,3.58,0,0,1,43.17,172.87Z"/><path class="cls-3" d="M255.17,345.6H2v-152a6.23,6.23,0,0,1,6.26-6.21H248.91a6.23,6.23,0,0,1,6.26,6.21Z"/><line class="cls-1" x1="91.13" y1="155.78" x2="162.33" y2="155.78"/><line class="cls-1" x1="92.55" y1="104.52" x2="163.75" y2="104.52"/><line class="cls-1" x1="93.98" y1="91.71" x2="165.17" y2="91.71"/><rect class="cls-4" x="2.43" y="187.1" width="253" height="158"/><circle class="cls-1" cx="22.23" cy="210.86" r="9.7"/><line class="cls-1" x1="2.27" y1="231.86" x2="254.9" y2="231.86"/><rect class="cls-1" x="217.93" y="325.79" width="24" height="9.82" rx="0.77"/></g></g></svg>