<svg xmlns="http://www.w3.org/2000/svg" viewBox="0 0 41.07 43.41"><defs><style>.cls-1{fill:#2e39b7;}</style></defs><g id="Layer_2" data-name="Layer 2"><g id="Layer_1-2" data-name="Layer 1"><path class="cls-1" d="M5.75,36.75,14.67,25,1,26.54V16.83L14.61,18.4,5.76,6.6l8.63-5,.46,1C15.94,5,17,7.13,18.06,9.2c.78,1.55,1.58,3.13,2.4,4.86.8-1.73,1.57-3.31,2.33-4.86,1-2.1,2.08-4.27,3.18-6.76l.44-1L35,6.32,26,18.47l14-1.65v9.67l-14-1.42,9,11.6-8.9,5.21L20.33,28.22,14,42Z"/><path class="cls-1" d="M26.88,2.84l6.65,3.79c-3.17,4.29-6.14,8.32-9.68,13.1l15.22-1.79v7.44L23.88,23.84l9.75,12.54-6.94,4.07L20.36,25.76c-2.45,5.3-4.51,9.78-6.8,14.74l-6.36-4,9.68-12.77L2,25.42V18l14.8,1.71L7.23,6.9,13.94,3c2.21,4.9,4.27,8.47,6.54,13.49,2.21-5,4.2-8.59,6.4-13.63M25.94,0l-.89,2C24,4.52,22.91,6.68,21.89,8.77c-.48,1-.95,2-1.44,3-.51-1-1-2-1.5-3-1.08-2.16-2.11-4.19-3.19-6.59l-.91-2L12.93,1.25l-6,3.52-.68.4L4.28,6.3,5.63,8.1,7.77,11l4.64,6.19L2.23,16,0,15.71v12l2.23-.26,10.23-1.16-2.8,3.69-4,5.35L4.29,37l1.85,1.16,4.54,2.87,1.81,1.14,1.93,1.22.95-2.07,3.75-8.12,1.17-2.55,4.56,10.57.9,2.08,1.95-1.15,6.94-4.07,2-1.15-1.4-1.8L28.33,26.3l10.54,1.07,2.2.22V15.7L38.83,16l-8.45,1-2.18.26,6.94-9.39L36.48,6l-2-1.11L29.81,2.21,27.87,1.1,25.94,0Z"/></g></g></svg>